<svg width="26" height="28" viewBox="0 0 26 28" fill="none" xmlns="http://www.w3.org/2000/svg">
<path d="M23.427 14.383C22.0997 12.5706 20.3282 11.1304 18.283 10.201C17.9113 10.0364 17.5326 9.88792 17.148 9.756C17.16 9.724 17.175 9.694 17.188 9.662C17.4227 9.05225 17.5312 8.40122 17.507 7.74831C17.4829 7.0954 17.3265 6.45419 17.0473 5.86346C16.7682 5.27274 16.3721 4.74479 15.883 4.31156C15.394 3.87833 14.8221 3.54883 14.202 3.343C13.5616 3.11099 12.8861 2.99091 12.205 2.988C12.169 2.862 12.089 2.313 12.785 0.83L11.375 0L11.037 0.466C10.653 0.997 10.282 1.51 9.934 2.016C9.5553 1.61398 9.03733 1.3718 8.486 1.339L6.854 1.238H6.85C6.80705 1.23542 6.76403 1.23409 6.721 1.234C6.16555 1.23489 5.63123 1.44701 5.2264 1.82732C4.82157 2.20764 4.57654 2.72769 4.541 3.282L4.44 4.917V4.923C4.40742 5.49959 4.60411 6.06567 4.98719 6.49783C5.37027 6.92999 5.90867 7.19318 6.485 7.23L7.653 7.302C7.56616 8.22392 7.72848 9.15224 8.123 9.99C6.52477 10.6668 5.07577 11.6523 3.859 12.89C2.38419e-07 16.788 0 21.06 0 24.492V26.562L1.524 24.946C1.82715 26.0195 2.27456 27.0468 2.854 28H4.837C3.84588 26.6748 3.17535 25.1379 2.878 23.51L5.113 21.14L3.963 24.745L5.993 23.268C9.579 20.658 13.861 20.058 18.719 21.485C19.6329 21.8204 20.6293 21.8591 21.5665 21.5956C22.5037 21.332 23.3339 20.7796 23.939 20.017C23.982 19.954 24.021 19.889 24.061 19.824C24.1687 20.3998 24.2236 20.9842 24.225 21.57C24.2807 23.8196 23.7242 26.0421 22.615 28H24.492C25.4411 25.9916 25.9127 23.7909 25.87 21.57C25.8362 18.976 24.9809 16.4594 23.427 14.382V14.383ZM10.845 3.925C10.9972 4.15369 11.2061 4.33897 11.4513 4.46272C11.6965 4.58647 11.9697 4.64445 12.244 4.631C12.7362 4.63681 13.2236 4.72887 13.684 4.903C14.2244 5.0793 14.7075 5.39766 15.0826 5.82475C15.4577 6.25183 15.7111 6.77193 15.8162 7.33056C15.9213 7.88919 15.8742 8.4658 15.68 9.00001C15.4857 9.53422 15.1514 10.0064 14.712 10.367L14.237 9.782L14.233 9.778C14.0154 9.51158 13.7223 9.31722 13.3921 9.22046C13.062 9.12369 12.7104 9.12904 12.3834 9.23581C12.0563 9.34258 11.7693 9.54577 11.5599 9.81869C11.3504 10.0916 11.2285 10.4215 11.21 10.765C10.538 10.4785 9.98372 9.97172 9.63835 9.32806C9.29298 8.6844 9.17717 7.94229 9.31 7.224C9.52456 5.9758 10.0159 4.79148 10.748 3.758C10.7774 3.81555 10.8101 3.87131 10.846 3.925H10.845ZM14.335 13.184L13.728 13.68C13.673 13.7246 13.6026 13.7457 13.5322 13.7386C13.4617 13.7314 13.3969 13.6967 13.352 13.642L13.226 13.487C13.1794 13.4295 13.1574 13.3559 13.1649 13.2822C13.1724 13.2086 13.2087 13.1409 13.266 13.094L13.866 12.604L12.63 11.088C12.5981 11.0514 12.5738 11.0088 12.5587 10.9626C12.5436 10.9164 12.5379 10.8677 12.542 10.8193C12.5461 10.7709 12.56 10.7238 12.5826 10.6809C12.6053 10.6379 12.6364 10.6 12.6741 10.5693C12.7118 10.5386 12.7552 10.5158 12.8019 10.5023C12.8485 10.4888 12.8974 10.4848 12.9456 10.4905C12.9939 10.4963 13.0404 10.5117 13.0826 10.5358C13.1248 10.5599 13.1616 10.5923 13.191 10.631L16.646 14.883C16.6848 14.9307 16.7107 14.9874 16.7215 15.0479C16.7323 15.1083 16.7275 15.1706 16.7076 15.2287C16.6877 15.2868 16.6533 15.3389 16.6077 15.3801C16.5622 15.4212 16.5068 15.4501 16.447 15.464C16.4205 15.4704 16.3933 15.4738 16.366 15.474C16.3121 15.4741 16.2589 15.4621 16.2103 15.4389C16.1616 15.4158 16.1188 15.3819 16.085 15.34L15.741 14.916L14.519 15.913C14.4904 15.9364 14.4574 15.954 14.422 15.9647C14.3866 15.9753 14.3495 15.9789 14.3127 15.9752C14.2759 15.9715 14.2402 15.9605 14.2077 15.943C14.1751 15.9255 14.1463 15.9017 14.123 15.873L13.57 15.196C13.5234 15.1387 13.5015 15.0652 13.509 14.9917C13.5165 14.9182 13.5528 14.8507 13.61 14.804L14.837 13.802L14.335 13.184ZM6.08 5.018L6.181 3.384C6.18965 3.24693 6.2502 3.1183 6.35033 3.0243C6.45047 2.9303 6.58266 2.87798 6.72 2.878L6.753 2.879L8.386 2.98C8.45674 2.98433 8.52593 3.00257 8.58962 3.03367C8.6533 3.06477 8.71023 3.10813 8.75713 3.16126C8.80404 3.21439 8.84001 3.27625 8.86298 3.3433C8.88595 3.41035 8.89547 3.48127 8.891 3.552L8.883 3.67C8.51412 4.3055 8.21185 4.9774 7.981 5.675L6.586 5.589C6.44342 5.58024 6.31011 5.51534 6.21527 5.40851C6.12044 5.30168 6.07179 5.16162 6.08 5.019V5.018ZM22.594 19.07C22.1867 19.5516 21.6374 19.8919 21.0249 20.0422C20.4124 20.1926 19.768 20.1452 19.184 19.907C14.652 18.577 10.554 18.854 6.971 20.727L8.878 14.749L1.675 22.389C1.65456 20.8459 1.94038 19.3141 2.51592 17.8821C3.09146 16.4502 3.9453 15.1467 5.028 14.047C6.18721 12.8647 7.58817 11.9467 9.135 11.356C9.77417 11.9356 10.5425 12.3542 11.376 12.577C11.561 12.6284 11.7491 12.6685 11.939 12.697C11.8286 12.9675 11.793 13.2627 11.8361 13.5516C11.8793 13.8406 11.9994 14.1126 12.184 14.339L12.269 14.443C12.1674 14.7097 12.1379 14.9985 12.1834 15.2802C12.2288 15.562 12.3477 15.8268 12.528 16.048L13.081 16.725C13.354 17.0593 13.7485 17.2716 14.178 17.3151C14.6074 17.3586 15.0365 17.2298 15.371 16.957L15.703 16.687C16.0543 16.8349 16.445 16.861 16.8129 16.7611C17.1808 16.6613 17.5047 16.4413 17.7331 16.1361C17.9615 15.8309 18.0812 15.458 18.0732 15.0769C18.0652 14.6958 17.93 14.3284 17.689 14.033L15.747 11.642C15.9192 11.5013 16.0816 11.3489 16.233 11.186C16.7038 11.3311 17.1657 11.5041 17.616 11.704C19.4117 12.5219 20.9649 13.7911 22.124 15.388C23.099 16.728 23.274 18.104 22.594 19.07V19.07Z" fill="#F8F8F8"/>
</svg>
